<svg width="80" height="20" viewBox="0 0 120 31" fill="none" xmlns="http://www.w3.org/2000/svg"><path fill-rule="evenodd" clip-rule="evenodd" d="M31.295 15.084a7.529 7.529 0 00-2.22-5.358 7.529 7.529 0 00-5.358-2.22H7.507v15.156h16.21a7.53 7.53 0 005.359-2.22 7.527 7.527 0 002.219-5.357zm7.507 0c0 8.33-6.754 15.084-15.085 15.084H0V0h23.717c8.331 0 15.085 6.753 15.085 15.084zm78.444-.985a9.378 9.378 0 00-6.649-2.754v.012H90.639a1.936 1.936 0 01-1.934-1.934c0-1.066.867-1.934 1.934-1.934h23.655a3.736 3.736 0 100-7.472H90.639c-1.268 0-2.5.25-3.663.741a9.368 9.368 0 00-2.988 2.014 9.375 9.375 0 00-2.014 2.989 9.351 9.351 0 00-.741 3.662c0 1.268.25 2.5.741 3.662a9.366 9.366 0 002.014 2.989 9.374 9.374 0 006.651 2.755h19.958v-.012c1.065 0 1.931.866 1.931 1.93a1.933 1.933 0 01-1.931 1.932H84.969a3.736 3.736 0 100 7.472h25.628a9.376 9.376 0 006.649-2.754 9.37 9.37 0 002.013-2.988 9.336 9.336 0 00.741-3.661 9.375 9.375 0 00-2.754-6.649zM71.876 0h7.472v26.415a3.736 3.736 0 01-6.378 2.641l-24.917-18.01v19.122H40.58V3.753a3.736 3.736 0 016.378-2.641l24.917 18.01V0z" fill="#fff"/></svg>